<svg xmlns="http://www.w3.org/2000/svg" xmlns:xlink="http://www.w3.org/1999/xlink" id="Layer_2" data-name="Layer 2" viewBox="0 0 480.26 216"><defs><style>      .cls-1 {        font-family: Gotham-Book, Gotham;        font-size: 31px;      }      .cls-1, .cls-2 {        fill: #fff;      }      .cls-3 {        letter-spacing: -.01em;      }      .cls-4 {        fill: url(#Degradado_sin_nombre_5);      }      .cls-5, .cls-6 {        fill: none;      }      .cls-6 {        clip-path: url(#clippath);      }    </style><clipPath id="clippath"><rect class="cls-5" y="205.49" width="450.18" height="10.49"></rect></clipPath><linearGradient id="Degradado_sin_nombre_5" data-name="Degradado sin nombre 5" x1="-914.93" y1="-1027.7" x2="-914.41" y2="-1027.7" gradientTransform="translate(788761.77 -885769.49) scale(862.1 -862.1)" gradientUnits="userSpaceOnUse"><stop offset="0" stop-color="#80ac1d"></stop><stop offset=".26" stop-color="#eab91f"></stop><stop offset=".52" stop-color="#c61638"></stop><stop offset=".81" stop-color="#50418a"></stop><stop offset="1" stop-color="#024c8b"></stop></linearGradient></defs><g id="Capa_1" data-name="Capa 1"><g><g class="cls-6"><rect class="cls-4" x="0" y="205.49" width="450.18" height="10.49"></rect></g><path class="cls-2" d="m226.19,187.69c-33.33,0-60.45-27.39-60.45-61.06V43.3l31.65,29.64c8.82-4.84,18.68-7.38,28.8-7.38,33.33,0,60.45,27.39,60.45,61.06s-27.12,61.06-60.45,61.06m-47.09-112.31v51.24c0,26.23,21.12,47.57,47.09,47.57s47.09-21.34,47.09-47.57-21.12-47.57-47.09-47.57c-9.17,0-18.06,2.67-25.72,7.73l-4.07,2.68-17.3-14.09Z"></path><polygon class="cls-2" points="480.26 31.28 450.18 31.28 450.18 0 436.56 0 436.56 188.02 450.18 188.02 450.18 45.04 480.26 45.04 480.26 31.28"></polygon><rect class="cls-2" x="137.7" y="67.76" width="13.62" height="120.26"></rect><path class="cls-2" d="m144.51,60.7c-11.17.16-11.17-17.56,0-17.4,11.17-.16,11.17,17.56,0,17.4"></path><path class="cls-2" d="m61.64,80.81c-19.39,0-36.71,9.1-48.02,23.29V0H0v187.8h13.62v-44.71c0-26.75,21.54-48.51,48.02-48.51s48.02,21.76,48.02,48.51v44.71h13.62v-44.71c0-34.34-27.65-62.27-61.64-62.27"></path><path class="cls-2" d="m361.56,187.95c-33.41,0-60.59-27.46-60.59-61.21s27.18-61.21,60.59-61.21,60.59,27.46,60.59,61.21-27.18,61.21-60.59,61.21m0-108.89c-26.03,0-47.2,21.39-47.2,47.68s21.17,47.68,47.2,47.68,47.2-21.39,47.2-47.68-21.17-47.68-47.2-47.68"></path></g></g></svg>
